# File created by Blade
# Date/Time:  Tue Jan 27 19:23:26 2015
#---------------------------------------------------------
:version 1.10
:name HOM
:units
  mass 1.0
  length 1.000000
  angle deg
:documentation
     Acclaim Skeleton File
:root
   axis xyz
   order TX TY TZ RX RY RZ
   position 0.000000 0.000000 0.000000
   orientation 0 0 0
:bonedata
   begin
      id 1
      name Spine_dum
      direction 0.000000 1.000000 0.000000
      length 6.116652
      axis 0.0 0.0 0.0 xyz
   end
   begin
      id 2
      name LeftUpLeg_dum
      direction 1.000000 0.000000 0.000000
      length 4.711765
      axis 0.0 0.0 0.0 xyz
   end
   begin
      id 3
      name RightUpLeg_dum
      direction -1.000000 0.000000 0.000000
      length 4.711765
      axis 0.0 0.0 0.0 xyz
   end
   begin
      id 4
      name Spine
      direction 0.000000 1.000000 0.000000
      length 0.000000
      axis 0.0 0.0 0.0 xyz
      dof rx ry rz
   end
   begin
      id 5
      name Spine_dum1
      direction 0.000000 1.000000 0.000000
      length 15.225563
      axis 0.0 0.0 0.0 xyz
   end
   begin
      id 6
      name Spine_dum2
      direction 0.000000 1.000000 0.000000
      length 8.977654
      axis 0.0 0.0 0.0 xyz
   end
   begin
      id 7
      name Spine_dum3
      direction 0.000000 1.000000 0.000000
      length 8.977654
      axis 0.0 0.0 0.0 xyz
   end
   begin
      id 8
      name Head
      direction 0.000000 1.000000 0.000000
      length 4.527550
      axis 0.0 0.0 0.0 xyz
      dof rx ry rz
   end
   begin
      id 9
      name LeftShoulder
      direction 1.000000 0.000000 0.000000
      length 7.110130
      axis 0.0 0.0 -90.0 xyz
      dof rx ry rz
   end
   begin
      id 10
      name LeftArm
      direction 1.000000 0.000000 0.000000
      length 10.398341
      axis 0.0 0.0 -90.0 xyz
      dof rx ry rz
   end
   begin
      id 11
      name LeftForeArm
      direction 1.000000 0.000000 0.000000
      length 8.888997
      axis 0.0 0.0 -90.0 xyz
      dof ry rz rx
   end
   begin
      id 12
      name LeftHand
      direction 0.000000 0.000000 0.000000
      length 0.000000
      axis 0.0 0.0 -90.0 xyz
      dof rx ry rz
   end
   begin
      id 13
      name LeftHand_dum1
      direction 0.000000 0.000000 0.000000
      length 0.000000
      axis 0.0 0.0 -90.0 xyz
   end
   begin
      id 14
      name LeftHand_dum2
      direction 1.000000 0.000000 0.000000
      length 3.937000
      axis 0.0 0.0 -90.0 xyz
   end
   begin
      id 15
      name LeftHandThumb1
      direction 0.000000 0.000000 1.000000
      length 3.937000
      axis 0.0 0.0 -90.0 xyz
      dof rx rz ry
   end
   begin
      id 16
      name RightShoulder
      direction -1.000000 0.000000 0.000000
      length 7.110130
      axis 0.0 0.0 90.0 xyz
      dof rx ry rz
   end
   begin
      id 17
      name RightArm
      direction -1.000000 0.000000 0.000000
      length 10.398341
      axis 0.0 0.0 90.0 xyz
      dof rx ry rz
   end
   begin
      id 18
      name RightForeArm
      direction -1.000000 0.000000 0.000000
      length 8.888997
      axis 0.0 0.0 90.0 xyz
      dof ry rz rx
   end
   begin
      id 19
      name RightHand
      direction 0.000000 0.000000 0.000000
      length 0.000000
      axis 0.0 0.0 90.0 xyz
      dof rx ry rz
   end
   begin
      id 20
      name RightHand_dum1
      direction 0.000000 0.000000 0.000000
      length 0.000000
      axis 0.0 0.0 90.0 xyz
   end
   begin
      id 21
      name RightHand_dum2
      direction -1.000000 0.000000 0.000000
      length 3.937000
      axis 0.0 0.0 90.0 xyz
   end
   begin
      id 22
      name RightHandThumb1
      direction 0.000000 0.000000 1.000000
      length 3.937000
      axis 0.0 0.0 90.0 xyz
      dof rx rz ry
   end
   begin
      id 23
      name LeftUpLeg
      direction 0.000000 -1.000000 0.000000
      length 15.510451
      axis 0.0 0.0 0.0 xyz
      dof rx ry rz
   end
   begin
      id 24
      name LeftLeg
      direction 0.000000 -1.000000 0.000000
      length 14.858061
      axis 0.0 0.0 0.0 xyz
      dof rx ry rz
   end
   begin
      id 25
      name LeftFoot
      direction 0.000000 -0.258819 0.965926
      length 5.128852
      axis 15.0 0.0 0.0 xyz
      dof rx ry rz
   end
   begin
      id 26
      name LeftToeBase
      direction 0.000000 0.000000 1.000000
      length 2.952750
      axis 0.0 0.0 0.0 xyz
      dof rx ry rz
   end
   begin
      id 27
      name RightUpLeg
      direction 0.000000 -1.000000 0.000000
      length 15.510451
      axis 0.0 0.0 0.0 xyz
      dof rx ry rz
   end
   begin
      id 28
      name RightLeg
      direction 0.000000 -1.000000 0.000000
      length 14.858061
      axis 0.0 0.0 0.0 xyz
      dof rx ry rz
   end
   begin
      id 29
      name RightFoot
      direction 0.000000 -0.258819 0.965926
      length 5.128852
      axis 15.0 0.0 0.0 xyz
      dof rx ry rz
   end
   begin
      id 30
      name RightToeBase
      direction 0.000000 0.000000 1.000000
      length 2.952750
      axis 0.0 0.0 0.0 xyz
      dof rx ry rz
   end
:hierarchy
   begin
      root Spine_dum LeftUpLeg_dum RightUpLeg_dum
      Spine_dum Spine
      LeftUpLeg_dum LeftUpLeg
      RightUpLeg_dum RightUpLeg
      Spine Spine_dum1 Spine_dum2 Spine_dum3
      Spine_dum1 Head
      Spine_dum2 LeftShoulder
      Spine_dum3 RightShoulder
      LeftShoulder LeftArm
      LeftArm LeftForeArm
      LeftForeArm LeftHand
      LeftHand LeftHand_dum1 LeftHand_dum2
      LeftHand_dum1 LeftHandThumb1
      RightShoulder RightArm
      RightArm RightForeArm
      RightForeArm RightHand
      RightHand RightHand_dum1 RightHand_dum2
      RightHand_dum1 RightHandThumb1
      LeftUpLeg LeftLeg
      LeftLeg LeftFoot
      LeftFoot LeftToeBase
      RightUpLeg RightLeg
      RightLeg RightFoot
      RightFoot RightToeBase
   end

# File created by Blade
# Date/Time:  Tue Jan 27 19:23:16 2015
# Frame Rate: 120.000 fps
#------------------------------------------------------
:FULLY-SPECIFIED
:DEGREES
1505
root 3.453628 32.266974 0.174684 -5.441632 4.735064 1.094323
Spine 0.783189 17.745745 -1.474238
Head 3.609716 -30.997357 -1.015515
LeftShoulder -1.678505 -8.120771 20.645092
LeftArm -3.160558 40.317567 -100.952064
LeftForeArm 4.755411 -0.000000 10.930640
LeftHand 9.974299 -0.000000 -5.510857
LeftHandThumb1 -26.253704 0.000000 33.147579
RightShoulder -0.440790 8.167655 -47.914358
RightArm 72.814061 0.624361 34.300208
RightForeArm 30.512684 -0.000000 87.561410
RightHand 26.283209 -0.000000 -8.747096
RightHandThumb1 -24.326973 -0.000000 -32.862282
LeftUpLeg 10.600598 -1.228638 -0.127606
LeftLeg 3.028312 -0.000000 -0.000000
LeftFoot -17.600778 11.910571 -23.867690
LeftToeBase 16.876652 -0.000000 -0.000000
RightUpLeg 11.212821 -11.065610 0.925548
RightLeg 0.382413 -0.000000 -0.000000
RightFoot -13.806956 -15.382287 13.303904
RightToeBase 10.248179 -0.000000 -0.000000
1506
root 3.438328 32.262901 0.175817 -5.511845 4.811402 1.078935
Spine 0.856895 17.959547 -1.626256
Head 3.507200 -31.357475 -0.646896
LeftShoulder -1.672087 -7.997746 20.619925
LeftArm -2.757839 40.127408 -100.625629
LeftForeArm 4.681291 0.000000 10.918194
LeftHand 10.220525 0.000000 -4.794331
LeftHandThumb1 -26.253704 0.000000 33.147579
RightShoulder -0.388991 7.503117 -47.729045
RightArm 73.238085 0.450672 33.807445
RightForeArm 30.846614 -0.000000 87.435051
RightHand 26.281744 -0.000000 -8.511742
RightHandThumb1 -24.326973 -0.000000 -32.862282
LeftUpLeg 10.645930 -1.282803 -0.085991
LeftLeg 3.057221 -0.000000 -0.000000
LeftFoot -17.636531 11.858549 -23.866301
LeftToeBase 16.880069 -0.000000 -0.000000
RightUpLeg 11.263968 -11.142562 0.946335
RightLeg 0.442978 -0.000000 -0.000000
RightFoot -13.867664 -15.363974 13.303482
RightToeBase 10.216878 -0.000000 -0.000000
1507
root 3.424396 32.259188 0.176230 -5.584948 4.886049 1.062690
Spine 0.936310 18.140775 -1.789166
Head 3.391703 -31.660634 -0.229683
LeftShoulder -1.620906 -8.095656 20.617076
LeftArm -2.712803 39.746137 -100.531257
LeftForeArm 4.821647 -0.000000 10.984678
LeftHand 10.097450 -0.000000 -5.237169
LeftHandThumb1 -26.253704 0.000000 33.147579
RightShoulder -0.309101 6.858604 -47.537297
RightArm 73.568595 0.385760 33.457446
RightForeArm 31.251219 -0.000000 87.372161
RightHand 26.198319 0.000000 -7.901844
RightHandThumb1 -24.326973 -0.000000 -32.862282
LeftUpLeg 10.696601 -1.346793 -0.049131
LeftLeg 3.077261 -0.000000 -0.000000
LeftFoot -17.665094 11.832249 -23.875081
LeftToeBase 16.859182 -0.000000 -0.000000
RightUpLeg 11.321779 -11.209257 0.965819
RightLeg 0.495414 -0.000000 -0.000000
RightFoot -13.938014 -15.366326 13.336383
RightToeBase 10.248526 -0.000000 -0.000000
1508
root 3.411155 32.256684 0.175849 -5.639768 4.963739 1.043042
Spine 0.998863 18.311663 -1.941048
Head 3.267787 -31.947772 0.162791
LeftShoulder -1.580686 -8.219582 20.628864
LeftArm -2.736570 39.396045 -100.501358
LeftForeArm 4.797679 -0.000000 11.076242
LeftHand 10.109051 -0.000000 -5.243650
LeftHandThumb1 -26.253704 0.000000 33.147579
RightShoulder -0.254701 6.185001 -47.352411
RightArm 73.925453 0.402051 33.126211
RightForeArm 31.398309 -0.000000 87.280736
RightHand 26.274228 0.000000 -7.916626
RightHandThumb1 -24.326973 -0.000000 -32.862282
LeftUpLeg 10.730501 -1.375184 -0.002575
LeftLeg 3.088885 -0.000000 -0.000000
LeftFoot -17.664289 11.761692 -23.868491
LeftToeBase 16.778709 -0.000000 -0.000000
RightUpLeg 11.380915 -11.319556 0.991958
RightLeg 0.496169 -0.000000 -0.000000
RightFoot -13.931144 -15.385732 13.257651
RightToeBase 10.228131 -0.000000 -0.000000
1509
root 3.393011 32.253446 0.173319 -5.669891 5.038104 0.994716
Spine 1.039177 18.453495 -2.073774
Head 3.123439 -32.194805 0.552126
LeftShoulder -1.568670 -8.251725 20.678608
LeftArm -2.635424 39.057312 -100.420642
LeftForeArm 4.858149 -0.000000 11.133175
LeftHand 10.196995 -0.000000 -5.337014
LeftHandThumb1 -26.253704 0.000000 33.147579
RightShoulder -0.176838 5.587748 -47.168489
RightArm 74.164808 0.473815 32.874260
RightForeArm 31.363163 -0.000000 87.233226
RightHand 26.305888 -0.000000 -7.951819
RightHandThumb1 -24.326973 -0.000000 -32.862282
LeftUpLeg 10.697932 -1.278440 0.109106
LeftLeg 3.169674 -0.000000 -0.000000
LeftFoot -17.680788 11.569614 -23.853726
LeftToeBase 16.841539 -0.000000 -0.000000
RightUpLeg 11.399177 -11.390940 1.062400
RightLeg 0.518458 -0.000000 -0.000000
RightFoot -13.942416 -15.407098 13.246583
RightToeBase 10.315363 -0.000000 -0.000000
